Vollkorn-Regular.ufo
<glyph name="I" format="1">
  <advance width="354"/>
  <unicode hex="0049"/>
  <outline>
    <contour>
      <point x="130" y="549" type="curve" smooth="yes"/>
      <point x="130" y="127" type="line" smooth="yes"/>
      <point x="130" y="60"/>
      <point x="114" y="43"/>
      <point x="61" y="40" type="curve"/>
      <point x="57" y="29"/>
      <point x="56" y="15"/>
      <point x="56" y="-3" type="curve"/>
      <point x="90" y="-1"/>
      <point x="138" y="0"/>
      <point x="177" y="0" type="curve" smooth="yes"/>
      <point x="216" y="0"/>
      <point x="258" y="-1"/>
      <point x="298" y="-3" type="curve"/>
      <point x="298" y="15"/>
      <point x="297" y="29"/>
      <point x="293" y="40" type="curve"/>
      <point x="240" y="43"/>
      <point x="224" y="60"/>
      <point x="224" y="127" type="curve" smooth="yes"/>
      <point x="224" y="549" type="line" smooth="yes"/>
      <point x="224" y="616"/>
      <point x="240" y="633"/>
      <point x="293" y="636" type="curve"/>
      <point x="297" y="647"/>
      <point x="298" y="661"/>
      <point x="298" y="679" type="curve"/>
      <point x="258" y="677"/>
      <point x="220" y="676"/>
      <point x="177" y="676" type="curve" smooth="yes"/>
      <point x="134" y="676"/>
      <point x="93" y="677"/>
      <point x="56" y="679" type="curve"/>
      <point x="56" y="661"/>
      <point x="57" y="647"/>
      <point x="61" y="636" type="curve"/>
      <point x="114" y="633"/>
      <point x="130" y="616"/>
    </contour>
    <contour>
      <point x="177" y="0" type="move" name="bottom"/>
    </contour>
    <contour>
      <point x="228" y="0" type="move" name="ogonek"/>
    </contour>
    <contour>
      <point x="177" y="676" type="move" name="top"/>
    </contour>
  </outline>
</glyph>
<glyph name="tcaron" format="1">
  <advance width="454"/>
  <unicode hex="0165"/>
  <outline>
    <contour>
      <point x="107" y="158" type="move"/>
    </contour>
    <component base="t"/>
    <component base="quoteright" xOffset="290"/>
  </outline>
</glyph>
<glyph name="gravecomb" format="1">
  <advance width="267"/>
  <unicode hex="0300"/>
  <outline>
    <contour>
      <point x="177" y="535" type="curve"/>
      <point x="190" y="533"/>
      <point x="205" y="531"/>
      <point x="217" y="537" type="curve"/>
      <point x="185" y="597"/>
      <point x="163" y="655"/>
      <point x="146" y="712" type="curve"/>
      <point x="113" y="717"/>
      <point x="76" y="717"/>
      <point x="50" y="704" type="curve"/>
      <point x="92" y="659"/>
      <point x="131" y="607"/>
    </contour>
    <contour>
      <point x="184" y="458" type="move" name="_top"/>
    </contour>
    <contour>
      <point x="184" y="715" type="move" name="top"/>
    </contour>
  </outline>
</glyph>
<glyph name="brevecomb" format="1">
  <advance width="433"/>
  <unicode hex="0306"/>
  <outline>
    <contour>
      <point x="383" y="697" type="curve"/>
      <point x="377" y="701"/>
      <point x="364" y="703"/>
      <point x="350" y="703" type="curve"/>
      <point x="346" y="635"/>
      <point x="298" y="592"/>
      <point x="225" y="592" type="curve" smooth="yes"/>
      <point x="152" y="592"/>
      <point x="100" y="635"/>
      <point x="90" y="703" type="curve"/>
      <point x="77" y="703"/>
      <point x="62" y="699"/>
      <point x="50" y="692" type="curve"/>
      <point x="50" y="587"/>
      <point x="110" y="527"/>
      <point x="215" y="527" type="curve" smooth="yes"/>
      <point x="322" y="527"/>
      <point x="383" y="589"/>
    </contour>
    <contour>
      <point x="217" y="458" type="move" name="_top"/>
    </contour>
    <contour>
      <point x="217" y="703" type="move" name="top"/>
    </contour>
  </outline>
</glyph>
<glyph name="breveinvertedcomb" format="1">
  <advance width="433"/>
  <unicode hex="0311"/>
  <outline>
    <component base="brevecomb" xScale="-1" yScale="-1" xOffset="433" yOffset="1230"/>
    <contour>
      <point x="217" y="458" type="move" name="_top"/>
    </contour>
    <contour>
      <point x="217" y="703" type="move" name="top"/>
    </contour>
  </outline>
</glyph>
<glyph name="commaabovecomb" format="1">
  <advance width="226"/>
  <unicode hex="0313"/>
  <outline>
    <component base="commaturnedabovecomb" xScale="-1" yScale="-1" xOffset="226" yOffset="1227"/>
    <contour>
      <point x="113" y="458" type="move" name="_top"/>
    </contour>
    <contour>
      <point x="113" y="721" type="move" name="top"/>
    </contour>
  </outline>
</glyph>
<glyph name="horncomb" format="1">
  <advance width="195"/>
  <unicode hex="031B"/>
  <outline>
    <contour>
      <point x="-75" y="402" type="line"/>
      <point x="24" y="402"/>
      <point x="105" y="434"/>
      <point x="105" y="515" type="curve" smooth="yes"/>
      <point x="105" y="536"/>
      <point x="99" y="555"/>
      <point x="84" y="576" type="curve"/>
      <point x="63" y="579"/>
      <point x="42" y="575"/>
      <point x="25" y="567" type="curve"/>
      <point x="29" y="550"/>
      <point x="31" y="534"/>
      <point x="31" y="521" type="curve" smooth="yes"/>
      <point x="31" y="461"/>
      <point x="-12" y="450"/>
      <point x="-46" y="441" type="curve"/>
    </contour>
    <contour>
      <point x="4" y="458" type="move" name="_topright"/>
    </contour>
    <contour>
      <point x="0" y="458" type="move" name="topright"/>
    </contour>
  </outline>
</glyph>
<glyph name="dotbelowcomb" format="1">
  <advance width="219"/>
  <unicode hex="0323"/>
  <outline>
    <contour>
      <point x="109" y="-210" type="curve" smooth="yes"/>
      <point x="142" y="-210"/>
      <point x="169" y="-183"/>
      <point x="169" y="-152" type="curve" smooth="yes"/>
      <point x="169" y="-116"/>
      <point x="145" y="-91"/>
      <point x="109" y="-91" type="curve" smooth="yes"/>
      <point x="78" y="-91"/>
      <point x="50" y="-116"/>
      <point x="50" y="-152" type="curve" smooth="yes"/>
      <point x="50" y="-184"/>
      <point x="75" y="-210"/>
    </contour>
    <contour>
      <point x="110" y="0" type="move" name="_bottom"/>
    </contour>
    <contour>
      <point x="112" y="-210" type="move" name="bottom"/>
    </contour>
  </outline>
</glyph>
<glyph name="ringbelowcomb" format="1">
  <advance width="302"/>
  <unicode hex="0325"/>
  <outline>
    <component base="ringcomb" yOffset="-772"/>
    <contour>
      <point x="151" y="0" type="move" name="_bottom"/>
    </contour>
    <contour>
      <point x="151" y="-246" type="move" name="bottom"/>
    </contour>
  </outline>
</glyph>
<glyph name="brevebelowcomb" format="1">
  <advance width="397"/>
  <unicode hex="032E"/>
  <outline>
    <component base="brevecomb.case" yOffset="-920"/>
    <contour>
      <point x="199" y="0" type="move" name="_bottom"/>
    </contour>
    <contour>
      <point x="199" y="-192" type="move" name="bottom"/>
    </contour>
  </outline>
</glyph>
<glyph name="macronbelowcomb" format="1">
  <advance width="464"/>
  <unicode hex="0331"/>
  <outline>
    <contour>
      <point x="50" y="-165" type="curve"/>
      <point x="221" y="-162"/>
      <point x="373" y="-162"/>
      <point x="405" y="-162" type="curve"/>
      <point x="411" y="-147"/>
      <point x="414" y="-133"/>
      <point x="414" y="-119" type="curve"/>
      <point x="59" y="-119" type="line"/>
      <point x="53" y="-131"/>
      <point x="50" y="-157"/>
    </contour>
    <contour>
      <point x="232" y="0" type="move" name="_bottom"/>
    </contour>
    <contour>
      <point x="232" y="-165" type="move" name="bottom"/>
    </contour>
  </outline>
</glyph>
<glyph name="strokeshortcomb" format="1">
  <advance width="356"/>
  <unicode hex="0335"/>
  <outline>
    <contour>
      <point x="50" y="333" type="curve"/>
      <point x="130" y="334"/>
      <point x="265" y="334"/>
      <point x="297" y="334" type="curve"/>
      <point x="303" y="349"/>
      <point x="306" y="362"/>
      <point x="306" y="376" type="curve"/>
      <point x="60" y="376" type="line"/>
      <point x="54" y="364"/>
      <point x="50" y="351"/>
    </contour>
    <contour>
      <point x="178" y="355" type="move" name="_center"/>
    </contour>
  </outline>
</glyph>
<glyph name="strokelongcomb" format="1">
  <advance width="683"/>
  <unicode hex="0336"/>
  <outline>
    <contour>
      <point x="50" y="235" type="curve"/>
      <point x="221" y="238"/>
      <point x="462" y="238"/>
      <point x="624" y="238" type="curve"/>
      <point x="630" y="253"/>
      <point x="633" y="267"/>
      <point x="633" y="281" type="curve"/>
      <point x="59" y="281" type="line"/>
      <point x="53" y="269"/>
      <point x="50" y="243"/>
    </contour>
    <contour>
      <point x="342" y="258" type="move" name="_center"/>
    </contour>
  </outline>
</glyph>
<glyph name="slashshortcomb" format="1">
  <advance width="600"/>
  <unicode hex="0337"/>
  <outline>
    <contour>
      <point x="75" y="188" type="line"/>
      <point x="496" y="414" type="line"/>
      <point x="471" y="464" type="line"/>
      <point x="50" y="238" type="line"/>
    </contour>
    <contour>
      <point x="273" y="326" type="move" name="_center"/>
    </contour>
  </outline>
</glyph>
<glyph name="slashlongcomb" format="1">
  <advance width="546"/>
  <unicode hex="0338"/>
  <outline>
    <contour>
      <point x="75" y="188" type="line"/>
      <point x="496" y="414" type="line"/>
      <point x="471" y="464" type="line"/>
      <point x="50" y="238" type="line"/>
    </contour>
    <contour>
      <point x="273" y="326" type="move" name="_center"/>
    </contour>
  </outline>
</glyph>
<glyph name="Delta" format="1">
  <advance width="656"/>
  <unicode hex="0394"/>
  <outline>
    <contour>
      <point x="306" y="677" type="curve"/>
      <point x="25" y="40" type="line"/>
      <point x="27" y="26"/>
      <point x="32" y="12"/>
      <point x="40" y="0" type="curve"/>
      <point x="615" y="0" type="line"/>
      <point x="624" y="11"/>
      <point x="630" y="25"/>
      <point x="631" y="40" type="curve"/>
      <point x="346" y="685" type="line"/>
      <point x="333" y="685"/>
      <point x="319" y="683"/>
    </contour>
    <contour>
      <point x="304" y="572" type="curve"/>
      <point x="297" y="572" type="line"/>
      <point x="309" y="534"/>
      <point x="323" y="503"/>
      <point x="340" y="465" type="curve" smooth="yes"/>
      <point x="540" y="11" type="line"/>
      <point x="542" y="44" type="line"/>
      <point x="57" y="44" type="line"/>
      <point x="62" y="11" type="line"/>
      <point x="261" y="464" type="line" smooth="yes"/>
      <point x="278" y="503"/>
      <point x="291" y="533"/>
    </contour>
    <contour>
      <point x="327" y="676" type="move" name="top"/>
    </contour>
  </outline>
</glyph>
<glyph name="Epsilon" format="1">
  <advance width="601"/>
  <unicode hex="0395"/>
  <outline>
    <component base="E"/>
    <contour>
      <point x="40" y="676" type="move" name="topleft"/>
    </contour>
  </outline>
</glyph>
<glyph name="Omicron" format="1">
  <advance width="731"/>
  <unicode hex="039F"/>
  <outline>
    <component base="O"/>
    <contour>
      <point x="70" y="676" type="move" name="topleft"/>
    </contour>
  </outline>
</glyph>
<glyph name="ie-cy" format="1">
  <advance width="474"/>
  <unicode hex="0435"/>
  <outline>
    <component base="e"/>
    <contour>
      <point x="237" y="458" type="move" name="top"/>
    </contour>
  </outline>
</glyph>
<glyph name="i-cy" format="1">
  <advance width="301"/>
  <unicode hex="0456"/>
  <outline>
    <component base="i"/>
    <contour>
      <point x="150" y="458" type="move" name="top"/>
    </contour>
  </outline>
</glyph>
<glyph name="__descender-cy.straight.case" format="1">
  <advance width="47"/>
  <outline>
    <contour>
      <point x="-43" y="-168" type="curve"/>
      <point x="-23" y="-173"/>
      <point x="3" y="-173"/>
      <point x="21" y="-168" type="curve"/>
      <point x="21" y="-93"/>
      <point x="26" y="-35"/>
      <point x="35" y="4" type="curve"/>
      <point x="35" y="17"/>
      <point x="30" y="31"/>
      <point x="20" y="40" type="curve"/>
      <point x="-48" y="40" type="line"/>
      <point x="-63" y="26" type="line"/>
      <point x="-50" y="-25"/>
      <point x="-42" y="-97"/>
    </contour>
    <contour>
      <point x="-24" y="40" type="move" name="_bottomright"/>
    </contour>
  </outline>
</glyph>
<glyph name="__descender-cy.straight" format="1">
  <advance width="38"/>
  <outline>
    <contour>
      <point x="-31" y="-168" type="curve"/>
      <point x="-11" y="-173"/>
      <point x="12" y="-173"/>
      <point x="30" y="-168" type="curve"/>
      <point x="30" y="-93"/>
      <point x="35" y="-35"/>
      <point x="43" y="4" type="curve"/>
      <point x="43" y="17"/>
      <point x="38" y="31"/>
      <point x="28" y="40" type="curve"/>
      <point x="-49" y="40" type="line"/>
      <point x="-49" y="26" type="line"/>
      <point x="-37" y="-25"/>
      <point x="-30" y="-97"/>
    </contour>
    <contour>
      <point x="-17" y="40" type="move" name="_bottomright"/>
    </contour>
  </outline>
</glyph>
<glyph name="_part.Dzhe-cy" format="1">
  <advance width="283"/>
  <outline>
    <contour>
      <point x="110" y="-168" type="curve"/>
      <point x="131" y="-173"/>
      <point x="154" y="-173"/>
      <point x="173" y="-168" type="curve"/>
      <point x="179" y="-7"/>
      <point x="187" y="0"/>
      <point x="239" y="0" type="curve"/>
      <point x="44" y="0" type="line"/>
      <point x="97" y="0"/>
      <point x="105" y="-7"/>
    </contour>
    <contour>
      <point x="142" y="0" type="move" name="_bottom"/>
    </contour>
  </outline>
</glyph>
<glyph name="_part.Hastroke-cy" format="1">
  <advance width="667"/>
  <outline>
    <contour>
      <point x="86" y="314" type="curve"/>
      <point x="164" y="317"/>
      <point x="513" y="317"/>
      <point x="590" y="317" type="curve"/>
      <point x="596" y="332"/>
      <point x="599" y="346"/>
      <point x="599" y="360" type="curve"/>
      <point x="95" y="360" type="line"/>
      <point x="89" y="348"/>
      <point x="86" y="332"/>
    </contour>
    <contour>
      <point x="346" y="337" type="move" name="_center"/>
    </contour>
  </outline>
</glyph>
<glyph name="_part.Qss02.sc" format="1">
  <advance width="329"/>
  <outline>
    <contour>
      <point x="251" y="-7" type="curve"/>
      <point x="265" y="-2"/>
      <point x="278" y="9"/>
      <point x="292" y="25" type="curve"/>
      <point x="83" y="191" type="line"/>
      <point x="67" y="186"/>
      <point x="53" y="173"/>
      <point x="39" y="158" type="curve"/>
      <point x="113" y="105"/>
      <point x="183" y="51"/>
    </contour>
    <contour>
      <point x="-13" y="0" type="move" name="_bottom"/>
    </contour>
  </outline>
</glyph>
<glyph name="_part.Theta" format="1">
  <advance width="408"/>
  <outline>
    <contour>
      <point x="22" y="322" type="curve"/>
      <point x="193" y="325"/>
      <point x="345" y="325"/>
      <point x="377" y="325" type="curve"/>
      <point x="383" y="340"/>
      <point x="386" y="354"/>
      <point x="386" y="368" type="curve"/>
      <point x="31" y="368" type="line"/>
      <point x="25" y="356"/>
      <point x="22" y="330"/>
    </contour>
    <contour>
      <point x="209" y="347" type="move" name="_center"/>
    </contour>
  </outline>
</glyph>
<glyph name="_part.cedi" format="1">
  <advance width="653"/>
  <outline>
    <contour>
      <point x="351" y="-91" type="line"/>
      <point x="366" y="-91"/>
      <point x="388" y="-86"/>
      <point x="397" y="-80" type="curve"/>
      <point x="395" y="91"/>
      <point x="395" y="190"/>
      <point x="395" y="347" type="curve" smooth="yes"/>
      <point x="395" y="476"/>
      <point x="395" y="620"/>
      <point x="397" y="744" type="curve"/>
      <point x="377" y="744"/>
      <point x="365" y="742"/>
      <point x="351" y="733" type="curve"/>
    </contour>
    <contour>
      <point x="374" y="676" type="move" name="_top"/>
    </contour>
  </outline>
</glyph>
<glyph name="_part.cedi.sc.black" format="1">
  <advance width="572"/>
  <outline>
    <contour>
      <point x="306" y="478" type="line"/>
      <point x="351" y="478" type="line"/>
      <point x="351" y="513"/>
      <point x="351" y="548"/>
      <point x="352" y="584" type="curve"/>
      <point x="338" y="591"/>
      <point x="325" y="593"/>
      <point x="306" y="593" type="curve"/>
    </contour>
    <contour>
      <point x="352" y="-105" type="curve"/>
      <point x="351" y="-57"/>
      <point x="351" y="-15"/>
      <point x="351" y="25" type="curve"/>
      <point x="306" y="25" type="line"/>
      <point x="306" y="-95" type="line"/>
      <point x="315" y="-101"/>
      <point x="337" y="-105"/>
    </contour>
    <contour>
      <point x="329" y="500" type="move" name="_top"/>
    </contour>
  </outline>
</glyph>
<glyph name="_part.ghestroke.cy.loclBSH" format="1">
  <advance width="437"/>
  <outline>
    <contour>
      <point x="182" y="185" type="line"/>
      <point x="250" y="185"/>
      <point x="288" y="184"/>
      <point x="324" y="181" type="curve"/>
      <point x="330" y="197"/>
      <point x="333" y="210"/>
      <point x="333" y="225" type="curve"/>
      <point x="182" y="225" type="line"/>
    </contour>
    <contour>
      <point x="145" y="224" type="move" name="_center"/>
    </contour>
  </outline>
</glyph>
<glyph name="_part.gstroke" format="1">
  <advance width="511"/>
  <outline>
    <contour>
      <point x="-16" y="-121" type="curve"/>
      <point x="141" y="-118"/>
      <point x="363" y="-118"/>
      <point x="512" y="-118" type="curve"/>
      <point x="518" y="-103"/>
      <point x="520" y="-89"/>
      <point x="520" y="-75" type="curve"/>
      <point x="-8" y="-75" type="line"/>
      <point x="-13" y="-87"/>
      <point x="-16" y="-113"/>
    </contour>
    <contour>
      <point x="253" y="-98" type="move" name="_center"/>
    </contour>
  </outline>
</glyph>
<glyph name="_part.naira" format="1">
  <advance width="742"/>
  <outline>
    <contour>
      <point x="42" y="332" type="curve"/>
      <point x="230" y="335"/>
      <point x="681" y="335"/>
      <point x="716" y="335" type="curve"/>
      <point x="722" y="350"/>
      <point x="725" y="364"/>
      <point x="725" y="378" type="curve"/>
      <point x="51" y="378" type="line"/>
      <point x="45" y="366"/>
      <point x="42" y="340"/>
    </contour>
    <contour>
      <point x="384" y="355" type="move" name="_center"/>
    </contour>
  </outline>
</glyph>
<glyph name="_part.naira.sc.black" format="1">
  <advance width="649"/>
  <outline>
    <contour>
      <point x="47" y="229" type="curve"/>
      <point x="81" y="229"/>
      <point x="122" y="230"/>
      <point x="165" y="230" type="curve"/>
      <point x="165" y="273" type="line"/>
      <point x="56" y="273" type="line"/>
      <point x="50" y="262"/>
      <point x="47" y="242"/>
    </contour>
    <contour>
      <point x="566" y="231" type="line"/>
      <point x="614" y="231"/>
      <point x="650" y="231"/>
      <point x="666" y="231" type="curve"/>
      <point x="672" y="245"/>
      <point x="675" y="257"/>
      <point x="675" y="273" type="curve"/>
      <point x="566" y="273" type="line"/>
    </contour>
    <contour>
      <point x="361" y="251" type="move" name="_center"/>
    </contour>
  </outline>
</glyph>
<glyph name="_part.naira.sc" format="1">
  <advance width="649"/>
  <outline>
    <contour>
      <point x="20" y="246" type="curve"/>
      <point x="206" y="248"/>
      <point x="575" y="248"/>
      <point x="639" y="248" type="curve"/>
      <point x="645" y="262"/>
      <point x="648" y="274"/>
      <point x="648" y="290" type="curve"/>
      <point x="29" y="290" type="line"/>
      <point x="23" y="279"/>
      <point x="20" y="259"/>
    </contour>
    <contour>
      <point x="334" y="268" type="move" name="_center"/>
    </contour>
  </outline>
</glyph>
<glyph name="_part.oslash.sc" format="1">
  <advance width="647"/>
  <outline>
    <contour>
      <point x="473" y="480" type="line"/>
      <point x="513" y="454" type="line"/>
      <point x="587" y="539" type="line"/>
      <point x="574" y="550"/>
      <point x="556" y="555"/>
      <point x="536" y="555" type="curve"/>
    </contour>
    <contour>
      <point x="166" y="63" type="line"/>
      <point x="128" y="86" type="line"/>
      <point x="48" y="-6" type="line"/>
      <point x="55" y="-17"/>
      <point x="73" y="-24"/>
      <point x="92" y="-24" type="curve"/>
    </contour>
    <contour>
      <point x="158" y="120" type="line"/>
      <point x="186" y="83" type="line"/>
      <point x="482" y="421" type="line"/>
      <point x="453" y="461" type="line"/>
    </contour>
    <contour>
      <point x="309" y="267" type="move" name="_center"/>
    </contour>
  </outline>
</glyph>
<glyph name="_part.peso.sc.black" format="1">
  <advance width="527"/>
  <outline>
    <contour>
      <point x="26" y="363" type="curve"/>
      <point x="73" y="364"/>
      <point x="120" y="365"/>
      <point x="167" y="365" type="curve"/>
      <point x="167" y="406" type="line"/>
      <point x="35" y="406" type="line"/>
      <point x="29" y="394"/>
      <point x="26" y="379"/>
    </contour>
    <contour>
      <point x="23" y="264" type="curve"/>
      <point x="71" y="265"/>
      <point x="119" y="266"/>
      <point x="167" y="266" type="curve"/>
      <point x="167" y="308" type="line"/>
      <point x="33" y="308" type="line"/>
      <point x="26" y="295"/>
      <point x="23" y="279"/>
    </contour>
    <contour>
      <point x="557" y="363" type="curve"/>
      <point x="563" y="376"/>
      <point x="567" y="388"/>
      <point x="567" y="406" type="curve"/>
      <point x="428" y="406" type="line"/>
      <point x="428" y="365" type="line"/>
      <point x="471" y="365"/>
      <point x="514" y="364"/>
    </contour>
    <contour>
      <point x="555" y="264" type="curve"/>
      <point x="562" y="277"/>
      <point x="565" y="291"/>
      <point x="565" y="308" type="curve"/>
      <point x="428" y="308" type="line"/>
      <point x="428" y="266" type="line"/>
      <point x="470" y="266"/>
      <point x="513" y="265"/>
    </contour>
    <contour>
      <point x="296" y="335" type="move" name="_center"/>
    </contour>
  </outline>
</glyph>
<glyph name="_part.zero.zero" format="1">
  <advance width="539"/>
  <outline>
    <contour>
      <point x="201" y="44" type="line"/>
      <point x="372" y="416" type="line"/>
      <point x="336" y="450" type="line"/>
      <point x="162" y="71" type="line"/>
    </contour>
    <contour>
      <point x="270" y="250" type="move" name="_center"/>
    </contour>
  </outline>
</glyph>
<glyph name="brevecomb-cy.case" format="1">
  <advance width="470"/>
  <outline>
    <contour>
      <point x="230" y="730" type="curve" smooth="yes"/>
      <point x="337" y="730"/>
      <point x="420" y="777"/>
      <point x="420" y="869" type="curve"/>
      <point x="398" y="877"/>
      <point x="365" y="880"/>
      <point x="337" y="877" type="curve"/>
      <point x="331" y="803"/>
      <point x="305" y="769"/>
      <point x="240" y="769" type="curve" smooth="yes"/>
      <point x="175" y="769"/>
      <point x="145" y="803"/>
      <point x="133" y="877" type="curve"/>
      <point x="104" y="879"/>
      <point x="73" y="875"/>
      <point x="50" y="866" type="curve"/>
      <point x="50" y="776"/>
      <point x="125" y="730"/>
    </contour>
    <contour>
      <point x="235" y="676" type="move" name="_top"/>
    </contour>
  </outline>
</glyph>
<glyph name="brevecomb.case" format="1">
  <advance width="397"/>
  <outline>
    <contour>
      <point x="347" y="865" type="curve"/>
      <point x="338" y="869"/>
      <point x="324" y="871"/>
      <point x="309" y="870" type="curve"/>
      <point x="306" y="822"/>
      <point x="266" y="792"/>
      <point x="206" y="792" type="curve" smooth="yes"/>
      <point x="146" y="792"/>
      <point x="103" y="822"/>
      <point x="95" y="870" type="curve"/>
      <point x="80" y="871"/>
      <point x="63" y="868"/>
      <point x="50" y="861" type="curve"/>
      <point x="50" y="775"/>
      <point x="103" y="728"/>
      <point x="197" y="728" type="curve" smooth="yes"/>
      <point x="293" y="728"/>
      <point x="347" y="777"/>
    </contour>
    <contour>
      <point x="199" y="676" type="move" name="_top"/>
    </contour>
    <contour>
      <point x="199" y="831" type="move" name="top"/>
    </contour>
  </outline>
</glyph>
<glyph name="breveinvertedcomb.case" format="1">
  <advance width="397"/>
  <outline>
    <component base="brevecomb.case" xScale="-1" yScale="-1" xOffset="397" yOffset="1598"/>
    <contour>
      <point x="199" y="676" type="move" name="_top"/>
    </contour>
    <contour>
      <point x="199" y="870" type="move" name="top"/>
    </contour>
  </outline>
</glyph>
<glyph name="breveinvertedcomb.i.case" format="1">
  <advance width="373"/>
  <outline>
    <component base="brevecomb.i.case" xScale="-1" yScale="-1" xOffset="373" yOffset="1583"/>
    <contour>
      <point x="187" y="676" type="move" name="_top"/>
    </contour>
    <contour>
      <point x="187" y="867" type="move" name="top"/>
    </contour>
  </outline>
</glyph>
<glyph name="breveinvertedcomb.i" format="1">
  <advance width="433"/>
  <outline>
    <component base="brevecomb.i" xScale="-1" yScale="-1" xOffset="433" yOffset="1230"/>
    <contour>
      <point x="217" y="458" type="move" name="_top"/>
    </contour>
    <contour>
      <point x="217" y="703" type="move" name="top"/>
    </contour>
  </outline>
</glyph>
<glyph name="caroncomb.i" format="1">
  <advance width="496"/>
  <outline>
    <component base="circumflexcomb.i" xScale="-1" yScale="-1" xOffset="454" yOffset="1226"/>
    <contour>
      <point x="243" y="458" type="move" name="_top"/>
    </contour>
    <contour>
      <point x="243" y="708" type="move" name="top"/>
    </contour>
  </outline>
</glyph>
<glyph name="descender-cy.center" format="1">
  <advance width="200"/>
  <outline>
    <contour>
      <point x="74" y="-168" type="curve"/>
      <point x="92" y="-173"/>
      <point x="115" y="-173"/>
      <point x="131" y="-168" type="curve"/>
      <point x="131" y="-101"/>
      <point x="135" y="-41"/>
      <point x="144" y="3" type="curve"/>
      <point x="61" y="3" type="line"/>
      <point x="69" y="-41"/>
      <point x="75" y="-101"/>
    </contour>
    <contour>
      <point x="103" y="0" type="move" name="_bottom"/>
    </contour>
  </outline>
</glyph>
<glyph name="dieresiscomb.case" format="1">
  <advance width="407"/>
  <outline>
    <component base="dieresiscomb" yOffset="200"/>
    <contour>
      <point x="204" y="676" type="move" name="_top"/>
    </contour>
    <contour>
      <point x="204" y="830" type="move" name="top"/>
    </contour>
  </outline>
</glyph>
<glyph name="horncomb.case.O" format="1">
  <advance width="165"/>
  <outline>
    <contour>
      <point x="40" y="633" type="line"/>
      <point x="118" y="633"/>
      <point x="182" y="677"/>
      <point x="182" y="744" type="curve" smooth="yes"/>
      <point x="182" y="765"/>
      <point x="176" y="785"/>
      <point x="161" y="805" type="curve"/>
      <point x="140" y="808"/>
      <point x="119" y="804"/>
      <point x="102" y="796" type="curve"/>
      <point x="106" y="779"/>
      <point x="108" y="763"/>
      <point x="108" y="749" type="curve" smooth="yes"/>
      <point x="108" y="688"/>
      <point x="71" y="676"/>
      <point x="14" y="676" type="curve" smooth="yes"/>
      <point x="-39" y="676"/>
      <point x="-78" y="688"/>
      <point x="-142" y="688" type="curve"/>
    </contour>
    <contour>
      <point x="100" y="679" type="move" name="_topright"/>
    </contour>
    <contour>
      <point x="100" y="679" type="move" name="topright"/>
    </contour>
  </outline>
</glyph>
<glyph name="horncomb.case" format="1">
  <advance width="165"/>
  <outline>
    <contour>
      <point x="85" y="636" type="line"/>
      <point x="139" y="647"/>
      <point x="183" y="683"/>
      <point x="183" y="741" type="curve" smooth="yes"/>
      <point x="183" y="763"/>
      <point x="177" y="781"/>
      <point x="162" y="802" type="curve"/>
      <point x="141" y="805"/>
      <point x="120" y="801"/>
      <point x="103" y="793" type="curve"/>
      <point x="107" y="776"/>
      <point x="109" y="761"/>
      <point x="109" y="748" type="curve" smooth="yes"/>
      <point x="109" y="688"/>
      <point x="63" y="676"/>
      <point x="2" y="676" type="curve"/>
    </contour>
    <contour>
      <point x="90" y="679" type="move" name="_topright"/>
    </contour>
    <contour>
      <point x="90" y="679" type="move" name="topright"/>
    </contour>
  </outline>
</glyph>
<glyph name="horncomb.o" format="1">
  <advance width="155"/>
  <outline>
    <contour>
      <point x="30" y="417" type="line"/>
      <point x="98" y="417"/>
      <point x="147" y="451"/>
      <point x="147" y="514" type="curve" smooth="yes"/>
      <point x="147" y="536"/>
      <point x="141" y="555"/>
      <point x="126" y="576" type="curve"/>
      <point x="105" y="579"/>
      <point x="84" y="575"/>
      <point x="67" y="567" type="curve"/>
      <point x="71" y="550"/>
      <point x="73" y="534"/>
      <point x="73" y="519" type="curve" smooth="yes"/>
      <point x="73" y="477"/>
      <point x="56" y="453"/>
      <point x="10" y="453" type="curve" smooth="yes"/>
      <point x="-25" y="453"/>
      <point x="-35" y="467"/>
      <point x="-94" y="467" type="curve"/>
    </contour>
    <contour>
      <point x="100" y="458" type="move" name="_topright"/>
    </contour>
    <contour>
      <point x="100" y="458" type="move" name="topright"/>
    </contour>
  </outline>
</glyph>
<glyph name="horncomb.o.sc" format="1">
  <advance width="355"/>
  <outline>
    <contour>
      <point x="174" y="457" type="line"/>
      <point x="250" y="457"/>
      <point x="305" y="491"/>
      <point x="305" y="555" type="curve" smooth="yes"/>
      <point x="305" y="576"/>
      <point x="299" y="595"/>
      <point x="284" y="616" type="curve"/>
      <point x="263" y="619"/>
      <point x="242" y="615"/>
      <point x="225" y="607" type="curve"/>
      <point x="229" y="590"/>
      <point x="231" y="574"/>
      <point x="231" y="559" type="curve" smooth="yes"/>
      <point x="231" y="517"/>
      <point x="215" y="493"/>
      <point x="172" y="493" type="curve" smooth="yes"/>
      <point x="131" y="493"/>
      <point x="119" y="507"/>
      <point x="50" y="507" type="curve"/>
    </contour>
    <contour>
      <point x="244" y="498" type="move" name="_topright"/>
    </contour>
    <contour>
      <point x="244" y="500" type="move" name="topright"/>
    </contour>
  </outline>
</glyph>
<glyph name="hyphen.hist" format="1">
  <advance width="419"/>
  <outline>
    <contour>
      <point x="69" y="247" type="curve"/>
      <point x="139" y="261"/>
      <point x="278" y="288"/>
      <point x="350" y="301" type="curve"/>
      <point x="356" y="320"/>
      <point x="355" y="346"/>
      <point x="352" y="367" type="curve"/>
      <point x="73" y="318" type="line"/>
      <point x="67" y="299"/>
      <point x="65" y="270"/>
    </contour>
    <contour>
      <point x="69" y="97" type="curve"/>
      <point x="139" y="111"/>
      <point x="278" y="138"/>
      <point x="350" y="151" type="curve"/>
      <point x="356" y="170"/>
      <point x="355" y="196"/>
      <point x="352" y="217" type="curve"/>
      <point x="73" y="168" type="line"/>
      <point x="67" y="149"/>
      <point x="65" y="120"/>
    </contour>
  </outline>
</glyph>
<glyph name="i.sc" format="1">
  <advance width="374"/>
  <outline>
    <contour>
      <point x="76" y="-2" type="curve"/>
      <point x="107" y="-1"/>
      <point x="152" y="0"/>
      <point x="188" y="0" type="curve" smooth="yes"/>
      <point x="225" y="0"/>
      <point x="264" y="-1"/>
      <point x="298" y="-2" type="curve"/>
      <point x="298" y="14"/>
      <point x="297" y="32"/>
      <point x="294" y="43" type="curve"/>
      <point x="247" y="46"/>
      <point x="233" y="58"/>
      <point x="233" y="117" type="curve" smooth="yes"/>
      <point x="233" y="384" type="line" smooth="yes"/>
      <point x="233" y="442"/>
      <point x="247" y="454"/>
      <point x="294" y="457" type="curve"/>
      <point x="298" y="471"/>
      <point x="298" y="486"/>
      <point x="298" y="502" type="curve"/>
      <point x="263" y="501"/>
      <point x="226" y="500"/>
      <point x="188" y="500" type="curve" smooth="yes"/>
      <point x="149" y="500"/>
      <point x="108" y="501"/>
      <point x="76" y="502" type="curve"/>
      <point x="76" y="486"/>
      <point x="77" y="469"/>
      <point x="81" y="457" type="curve"/>
      <point x="128" y="453"/>
      <point x="141" y="442"/>
      <point x="141" y="384" type="curve" smooth="yes"/>
      <point x="141" y="117" type="line" smooth="yes"/>
      <point x="141" y="58"/>
      <point x="128" y="46"/>
      <point x="81" y="43" type="curve"/>
      <point x="77" y="32"/>
      <point x="76" y="13"/>
    </contour>
    <contour>
      <point x="187" y="0" type="move" name="bottom"/>
    </contour>
    <contour>
      <point x="237" y="0" type="move" name="ogonek"/>
    </contour>
    <contour>
      <point x="187" y="500" type="move" name="top"/>
    </contour>
  </outline>
</glyph>
<glyph name="macroncomb.case" format="1">
  <advance width="464"/>
  <outline>
    <contour>
      <point x="414" y="805" type="curve"/>
      <point x="59" y="805" type="line"/>
      <point x="53" y="793"/>
      <point x="50" y="767"/>
      <point x="50" y="759" type="curve"/>
      <point x="221" y="762"/>
      <point x="373" y="762"/>
      <point x="405" y="762" type="curve"/>
      <point x="411" y="777"/>
      <point x="414" y="791"/>
    </contour>
    <contour>
      <point x="232" y="676" type="move" name="_top"/>
    </contour>
    <contour>
      <point x="232" y="805" type="move" name="top"/>
    </contour>
  </outline>
</glyph>
<glyph name="macroncomb.i.case" format="1">
  <advance width="324"/>
  <outline>
    <contour>
      <point x="30" y="756" type="curve"/>
      <point x="150" y="760"/>
      <point x="247" y="760"/>
      <point x="285" y="760" type="curve"/>
      <point x="291" y="777"/>
      <point x="294" y="793"/>
      <point x="294" y="805" type="curve"/>
      <point x="39" y="805" type="line"/>
      <point x="33" y="794"/>
      <point x="30" y="768"/>
    </contour>
    <contour>
      <point x="162" y="676" type="move" name="_top"/>
    </contour>
    <contour>
      <point x="162" y="805" type="move" name="top"/>
    </contour>
  </outline>
</glyph>
<glyph name="macroncomb.i" format="1">
  <advance width="304"/>
  <outline>
    <contour>
      <point x="30" y="579" type="curve"/>
      <point x="138" y="582"/>
      <point x="226" y="582"/>
      <point x="260" y="582" type="curve"/>
      <point x="266" y="600"/>
      <point x="269" y="617"/>
      <point x="269" y="631" type="curve"/>
      <point x="39" y="631" type="line"/>
      <point x="33" y="619"/>
      <point x="30" y="590"/>
    </contour>
    <contour>
      <point x="152" y="458" type="move" name="_top"/>
    </contour>
    <contour>
      <point x="152" y="631" type="move" name="top"/>
    </contour>
  </outline>
</glyph>
<glyph name="o.sc" format="1">
  <advance width="694"/>
  <outline>
    <contour>
      <point x="346" y="-9" type="curve" smooth="yes"/>
      <point x="522" y="-9"/>
      <point x="639" y="95"/>
      <point x="639" y="250" type="curve" smooth="yes"/>
      <point x="639" y="404"/>
      <point x="522" y="507"/>
      <point x="348" y="507" type="curve" smooth="yes"/>
      <point x="171" y="507"/>
      <point x="55" y="401"/>
      <point x="55" y="248" type="curve" smooth="yes"/>
      <point x="55" y="92"/>
      <point x="173" y="-9"/>
    </contour>
    <contour>
      <point x="360" y="37" type="curve" smooth="yes"/>
      <point x="244" y="37"/>
      <point x="158" y="127"/>
      <point x="158" y="263" type="curve" smooth="yes"/>
      <point x="158" y="381"/>
      <point x="224" y="461"/>
      <point x="333" y="461" type="curve" smooth="yes"/>
      <point x="451" y="461"/>
      <point x="536" y="367"/>
      <point x="536" y="235" type="curve" smooth="yes"/>
      <point x="536" y="115"/>
      <point x="469" y="37"/>
    </contour>
    <contour>
      <point x="347" y="0" type="move" name="bottom"/>
    </contour>
    <contour>
      <point x="347" y="247" type="move" name="center"/>
    </contour>
    <contour>
      <point x="509" y="30" type="move" name="ogonek"/>
    </contour>
    <contour>
      <point x="347" y="500" type="move" name="top"/>
    </contour>
    <contour>
      <point x="40" y="500" type="move" name="topleft"/>
    </contour>
    <contour>
      <point x="550" y="498" type="move" name="topright"/>
    </contour>
  </outline>
</glyph>
<glyph name="s_t" format="1">
  <advance width="779"/>
  <outline>
    <contour>
      <point x="734" y="69" type="curve"/>
      <point x="718" y="55"/>
      <point x="696" y="45"/>
      <point x="672" y="45" type="curve" smooth="yes"/>
      <point x="632" y="45"/>
      <point x="610" y="71"/>
      <point x="610" y="141" type="curve" smooth="yes"/>
      <point x="610" y="391" type="line"/>
      <point x="643" y="398"/>
      <point x="683" y="402"/>
      <point x="731" y="404" type="curve"/>
      <point x="737" y="419"/>
      <point x="740" y="435"/>
      <point x="740" y="448" type="curve"/>
      <point x="610" y="448" type="line"/>
      <point x="610" y="497" type="line" smooth="yes"/>
      <point x="610" y="622"/>
      <point x="549" y="685"/>
      <point x="437" y="685" type="curve" smooth="yes"/>
      <point x="334" y="685"/>
      <point x="266" y="632"/>
      <point x="266" y="544" type="curve" smooth="yes"/>
      <point x="266" y="493"/>
      <point x="289" y="450"/>
      <point x="330" y="427" type="curve"/>
      <point x="355" y="432" type="line"/>
      <point x="331" y="467"/>
      <point x="319" y="504"/>
      <point x="319" y="537" type="curve" smooth="yes"/>
      <point x="319" y="595"/>
      <point x="355" y="631"/>
      <point x="417" y="631" type="curve" smooth="yes"/>
      <point x="487" y="631"/>
      <point x="520" y="586"/>
      <point x="520" y="493" type="curve" smooth="yes"/>
      <point x="520" y="448" type="line"/>
      <point x="457" y="448" type="line"/>
      <point x="450" y="432"/>
      <point x="448" y="421"/>
      <point x="448" y="404" type="curve"/>
      <point x="481" y="402"/>
      <point x="500" y="398"/>
      <point x="520" y="391" type="curve"/>
      <point x="520" y="120" type="line" smooth="yes"/>
      <point x="520" y="32"/>
      <point x="557" y="-9"/>
      <point x="631" y="-9" type="curve" smooth="yes"/>
      <point x="685" y="-9"/>
      <point x="728" y="13"/>
      <point x="749" y="36" type="curve"/>
      <point x="748" y="47"/>
      <point x="742" y="60"/>
    </contour>
    <component base="s"/>
    <contour>
      <point x="623" y="0" type="move" name="bottom"/>
    </contour>
    <contour>
      <point x="445" y="0" type="move" name="caret_1"/>
    </contour>
    <contour>
      <point x="566" y="250" type="move" name="center"/>
    </contour>
  </outline>
</glyph>
<glyph name="schmuck" format="1">
  <advance width="3116"/>
  <outline>
    <contour>
      <point x="1386" y="226" type="curve"/>
      <point x="1373" y="249"/>
      <point x="1361" y="289"/>
      <point x="1357" y="317" type="curve"/>
      <point x="1014" y="294"/>
      <point x="483" y="290"/>
      <point x="71" y="290" type="curve"/>
      <point x="62" y="274"/>
      <point x="60" y="258"/>
      <point x="60" y="237" type="curve"/>
      <point x="552" y="237"/>
      <point x="1014" y="232"/>
      <point x="1359" y="210" type="curve" smooth="yes"/>
      <point x="1375" y="209"/>
      <point x="1382" y="214"/>
    </contour>
    <contour>
      <point x="1730" y="301" type="curve"/>
      <point x="1743" y="278"/>
      <point x="1755" y="238"/>
      <point x="1759" y="210" type="curve"/>
      <point x="2102" y="233"/>
      <point x="2633" y="237"/>
      <point x="3045" y="237" type="curve"/>
      <point x="3054" y="253"/>
      <point x="3056" y="269"/>
      <point x="3056" y="290" type="curve"/>
      <point x="2564" y="290"/>
      <point x="2102" y="295"/>
      <point x="1757" y="317" type="curve" smooth="yes"/>
      <point x="1741" y="318"/>
      <point x="1734" y="313"/>
    </contour>
    <contour>
      <point x="1556" y="204" type="curve" smooth="yes"/>
      <point x="1588" y="204"/>
      <point x="1617" y="224"/>
      <point x="1617" y="268" type="curve" smooth="yes"/>
      <point x="1617" y="293"/>
      <point x="1595" y="325"/>
      <point x="1560" y="325" type="curve" smooth="yes"/>
      <point x="1524" y="325"/>
      <point x="1498" y="297"/>
      <point x="1498" y="263" type="curve" smooth="yes"/>
      <point x="1498" y="228"/>
      <point x="1520" y="204"/>
    </contour>
  </outline>
</glyph>
<glyph name="schwa.sc" format="1">
  <advance width="614"/>
  <outline>
    <contour>
      <point x="287" y="-5" type="curve" smooth="yes"/>
      <point x="464" y="-5"/>
      <point x="559" y="113"/>
      <point x="559" y="262" type="curve" smooth="yes"/>
      <point x="559" y="395"/>
      <point x="477" y="507"/>
      <point x="274" y="507" type="curve" smooth="yes"/>
      <point x="209" y="507"/>
      <point x="134" y="496"/>
      <point x="85" y="473" type="curve"/>
      <point x="90" y="437"/>
      <point x="89" y="403"/>
      <point x="86" y="369" type="curve"/>
      <point x="102" y="363"/>
      <point x="121" y="360"/>
      <point x="139" y="362" type="curve"/>
      <point x="153" y="432"/>
      <point x="177" y="464"/>
      <point x="260" y="464" type="curve" smooth="yes"/>
      <point x="415" y="464"/>
      <point x="454" y="358"/>
      <point x="454" y="239" type="curve" smooth="yes"/>
      <point x="454" y="86"/>
      <point x="384" y="38"/>
      <point x="304" y="38" type="curve" smooth="yes"/>
      <point x="210" y="38"/>
      <point x="165" y="106"/>
      <point x="165" y="218" type="curve"/>
      <point x="262" y="218"/>
      <point x="361" y="217"/>
      <point x="466" y="214" type="curve"/>
      <point x="466" y="260" type="line"/>
      <point x="71" y="260" type="line"/>
      <point x="63" y="251"/>
      <point x="58" y="240"/>
      <point x="55" y="227" type="curve"/>
      <point x="66" y="101"/>
      <point x="124" y="-5"/>
    </contour>
    <contour>
      <point x="307" y="0" type="move" name="bottom"/>
    </contour>
    <contour>
      <point x="307" y="500" type="move" name="top"/>
    </contour>
  </outline>
</glyph>
<glyph name="strokelongcomb.gstroke.black" format="1">
  <advance width="683"/>
  <outline>
    <contour>
      <point x="84" y="-121" type="curve"/>
      <point x="116" y="-120"/>
      <point x="150" y="-120"/>
      <point x="186" y="-120" type="curve"/>
      <point x="186" y="-75" type="line"/>
      <point x="92" y="-75" type="line"/>
      <point x="87" y="-87"/>
      <point x="84" y="-113"/>
    </contour>
    <contour>
      <point x="515" y="-118" type="line"/>
      <point x="550" y="-118"/>
      <point x="582" y="-118"/>
      <point x="612" y="-118" type="curve"/>
      <point x="618" y="-103"/>
      <point x="620" y="-89"/>
      <point x="620" y="-75" type="curve"/>
      <point x="515" y="-75" type="line"/>
    </contour>
    <contour>
      <point x="353" y="-98" type="move" name="_center"/>
    </contour>
  </outline>
</glyph>
<glyph name="strokelongcomb.sc" format="1">
  <advance width="651"/>
  <outline>
    <contour>
      <point x="44" y="324" type="curve"/>
      <point x="212" y="327"/>
      <point x="537" y="327"/>
      <point x="599" y="327" type="curve"/>
      <point x="604" y="340"/>
      <point x="607" y="353"/>
      <point x="607" y="368" type="curve"/>
      <point x="53" y="368" type="line"/>
      <point x="47" y="357"/>
      <point x="44" y="338"/>
    </contour>
    <contour>
      <point x="326" y="346" type="move" name="_center"/>
    </contour>
  </outline>
</glyph>
<glyph name="strokeshortcomb.sc" format="1">
  <advance width="418"/>
  <outline>
    <contour>
      <point x="44" y="226" type="curve"/>
      <point x="107" y="227"/>
      <point x="139" y="228"/>
      <point x="185" y="228" type="curve"/>
      <point x="231" y="228" type="line"/>
      <point x="284" y="228"/>
      <point x="314" y="228"/>
      <point x="364" y="227" type="curve"/>
      <point x="372" y="241"/>
      <point x="374" y="256"/>
      <point x="374" y="276" type="curve"/>
      <point x="233" y="276" type="line"/>
      <point x="186" y="276" type="line"/>
      <point x="54" y="276" type="line"/>
      <point x="48" y="265"/>
      <point x="44" y="244"/>
    </contour>
    <contour>
      <point x="209" y="254" type="move" name="_center"/>
    </contour>
  </outline>
</glyph>
<glyph name="tonos.case" format="1">
  <advance width="201"/>
  <outline>
    <contour>
      <point x="94" y="479" type="curve"/>
      <point x="112" y="556"/>
      <point x="129" y="616"/>
      <point x="151" y="677" type="curve"/>
      <point x="138" y="682"/>
      <point x="121" y="685"/>
      <point x="104" y="685" type="curve" smooth="yes"/>
      <point x="88" y="685"/>
      <point x="72" y="682"/>
      <point x="56" y="678" type="curve"/>
      <point x="56" y="618"/>
      <point x="55" y="553"/>
      <point x="50" y="484" type="curve"/>
      <point x="63" y="478"/>
      <point x="75" y="477"/>
    </contour>
    <contour>
      <point x="171" y="676" type="move" name="_topleft"/>
    </contour>
  </outline>
</glyph>
<glyph name="zero.tosf.zero" format="1">
  <advance width="550"/>
  <outline>
    <contour>
      <point x="138" y="55" type="line"/>
      <point x="412" y="373" type="line"/>
      <point x="412" y="444" type="line"/>
      <point x="138" y="127" type="line"/>
    </contour>
    <component base="zero.tosf"/>
  </outline>
</glyph>
